<svg xmlns="http://www.w3.org/2000/svg" viewBox="0 0 800 600" width="800" height="600">
  <rect width="800" height="600" fill="#0A1628"/>
  <rect x="1" y="1" width="798" height="598" fill="none" stroke="#1E3A5F" stroke-width="2"/>

  <!-- Blueprint grid -->
  <defs>
    <pattern id="grid" x="0" y="0" width="40" height="40" patternUnits="userSpaceOnUse">
      <path d="M 40 0 L 0 0 0 40" fill="none" stroke="#0D2040" stroke-width="0.5"/>
    </pattern>
    <pattern id="grid2" x="0" y="0" width="200" height="200" patternUnits="userSpaceOnUse">
      <path d="M 200 0 L 0 0 0 200" fill="none" stroke="#142840" stroke-width="1"/>
    </pattern>
  </defs>
  <rect width="800" height="600" fill="url(#grid)"/>
  <rect width="800" height="600" fill="url(#grid2)"/>

  <!-- Title block -->
  <rect x="20" y="20" width="760" height="50" fill="none" stroke="#1E4A8A" stroke-width="1"/>
  <text x="400" y="40" text-anchor="middle" fill="#4A90D9" font-family="monospace" font-size="14" font-weight="bold">GE AK-25 / AK-50 LOW-VOLTAGE POWER CIRCUIT BREAKER</text>
  <text x="400" y="58" text-anchor="middle" fill="#3A7ABF" font-family="monospace" font-size="10">EXPLODED ASSEMBLY VIEW — REF: GEI-50299 / GEK-7303C</text>

  <!-- ARC QUENCHERS (top row) -->
  <g opacity="0.9">
    <rect x="120" y="90" width="80" height="100" rx="3" fill="#1A1A1A" stroke="#4A90D9" stroke-width="1.5"/>
    <rect x="123" y="93" width="10" height="94" rx="1" fill="#3A2010" stroke="#5A4030" stroke-width="0.5"/>
    <rect x="187" y="93" width="10" height="94" rx="1" fill="#3A2010" stroke="#5A4030" stroke-width="0.5"/>
    <rect x="120" y="90" width="80" height="14" rx="3" fill="#282828" stroke="#4A90D9" stroke-width="0.8"/>
    <!-- Splitter plates -->
    <line x1="135" y1="108" x2="155" y2="108" stroke="#6A6A6A" stroke-width="4"/>
    <line x1="165" y1="108" x2="185" y2="108" stroke="#6A6A6A" stroke-width="4"/>
    <line x1="135" y1="118" x2="155" y2="118" stroke="#6A6A6A" stroke-width="4"/>
    <line x1="165" y1="118" x2="185" y2="118" stroke="#6A6A6A" stroke-width="4"/>
    <line x1="135" y1="128" x2="155" y2="128" stroke="#6A6A6A" stroke-width="4"/>
    <line x1="165" y1="128" x2="185" y2="128" stroke="#6A6A6A" stroke-width="4"/>
    <line x1="135" y1="138" x2="155" y2="138" stroke="#6A6A6A" stroke-width="4"/>
    <line x1="165" y1="138" x2="185" y2="138" stroke="#6A6A6A" stroke-width="4"/>
    <line x1="135" y1="148" x2="155" y2="148" stroke="#6A6A6A" stroke-width="4"/>
    <line x1="165" y1="148" x2="185" y2="148" stroke="#6A6A6A" stroke-width="4"/>
    <text x="160" y="200" text-anchor="middle" fill="#4A90D9" font-family="monospace" font-size="8">① ARC CHUTE Ph.A</text>

    <rect x="360" y="90" width="80" height="100" rx="3" fill="#1A1A1A" stroke="#4A90D9" stroke-width="1.5"/>
    <rect x="363" y="93" width="10" height="94" rx="1" fill="#3A2010" stroke="#5A4030" stroke-width="0.5"/>
    <rect x="427" y="93" width="10" height="94" rx="1" fill="#3A2010" stroke="#5A4030" stroke-width="0.5"/>
    <rect x="360" y="90" width="80" height="14" rx="3" fill="#282828" stroke="#4A90D9" stroke-width="0.8"/>
    <line x1="375" y1="108" x2="395" y2="108" stroke="#6A6A6A" stroke-width="4"/>
    <line x1="405" y1="108" x2="425" y2="108" stroke="#6A6A6A" stroke-width="4"/>
    <line x1="375" y1="118" x2="395" y2="118" stroke="#6A6A6A" stroke-width="4"/>
    <line x1="405" y1="118" x2="425" y2="118" stroke="#6A6A6A" stroke-width="4"/>
    <line x1="375" y1="128" x2="395" y2="128" stroke="#6A6A6A" stroke-width="4"/>
    <line x1="405" y1="128" x2="425" y2="128" stroke="#6A6A6A" stroke-width="4"/>
    <line x1="375" y1="138" x2="395" y2="138" stroke="#6A6A6A" stroke-width="4"/>
    <line x1="405" y1="138" x2="425" y2="138" stroke="#6A6A6A" stroke-width="4"/>
    <text x="400" y="200" text-anchor="middle" fill="#4A90D9" font-family="monospace" font-size="8">② ARC CHUTE Ph.B</text>

    <rect x="600" y="90" width="80" height="100" rx="3" fill="#1A1A1A" stroke="#4A90D9" stroke-width="1.5"/>
    <rect x="603" y="93" width="10" height="94" rx="1" fill="#3A2010" stroke="#5A4030" stroke-width="0.5"/>
    <rect x="667" y="93" width="10" height="94" rx="1" fill="#3A2010" stroke="#5A4030" stroke-width="0.5"/>
    <rect x="600" y="90" width="80" height="14" rx="3" fill="#282828" stroke="#4A90D9" stroke-width="0.8"/>
    <line x1="615" y1="108" x2="635" y2="108" stroke="#6A6A6A" stroke-width="4"/>
    <line x1="645" y1="108" x2="665" y2="108" stroke="#6A6A6A" stroke-width="4"/>
    <line x1="615" y1="118" x2="635" y2="118" stroke="#6A6A6A" stroke-width="4"/>
    <line x1="645" y1="118" x2="665" y2="118" stroke="#6A6A6A" stroke-width="4"/>
    <line x1="615" y1="128" x2="635" y2="128" stroke="#6A6A6A" stroke-width="4"/>
    <line x1="645" y1="128" x2="665" y2="128" stroke="#6A6A6A" stroke-width="4"/>
    <text x="640" y="200" text-anchor="middle" fill="#4A90D9" font-family="monospace" font-size="8">③ ARC CHUTE Ph.C</text>
  </g>

  <!-- OPERATING MECHANISM (left) -->
  <g opacity="0.9">
    <rect x="20" y="220" width="130" height="180" rx="5" fill="#1A3A6A" stroke="#4A90D9" stroke-width="1.5"/>
    <rect x="25" y="230" width="120" height="30" rx="3" fill="#E8E8E0" stroke="#C0C0B8" stroke-width="0.5"/>
    <text x="85" y="242" text-anchor="middle" fill="#1A1A1A" font-family="monospace" font-size="6" font-weight="bold">GENERAL ELECTRIC</text>
    <text x="85" y="252" text-anchor="middle" fill="#333" font-family="monospace" font-size="5">LOW VOLTAGE POWER C.B.</text>
    <!-- Springs -->
    <ellipse cx="55" cy="280" rx="14" ry="3" fill="none" stroke="#B0B0B0" stroke-width="1.5"/>
    <ellipse cx="55" cy="290" rx="14" ry="3" fill="none" stroke="#B0B0B0" stroke-width="1.5"/>
    <ellipse cx="55" cy="300" rx="14" ry="3" fill="none" stroke="#B0B0B0" stroke-width="1.5"/>
    <ellipse cx="55" cy="310" rx="14" ry="3" fill="none" stroke="#B0B0B0" stroke-width="1.5"/>
    <ellipse cx="115" cy="280" rx="14" ry="3" fill="none" stroke="#B0B0B0" stroke-width="1.5"/>
    <ellipse cx="115" cy="290" rx="14" ry="3" fill="none" stroke="#B0B0B0" stroke-width="1.5"/>
    <ellipse cx="115" cy="300" rx="14" ry="3" fill="none" stroke="#B0B0B0" stroke-width="1.5"/>
    <ellipse cx="115" cy="310" rx="14" ry="3" fill="none" stroke="#B0B0B0" stroke-width="1.5"/>
    <!-- TRIP button -->
    <circle cx="130" cy="260" r="12" fill="#CC2222" stroke="#8B0000" stroke-width="1.5"/>
    <text x="130" y="263" text-anchor="middle" fill="white" font-family="monospace" font-size="5" font-weight="bold">TRIP</text>
    <text x="85" y="400" text-anchor="middle" fill="#4A90D9" font-family="monospace" font-size="8">⑧ MECHANISM</text>
  </g>

  <!-- POLE UNITS (center) -->
  <g opacity="0.9">
    <!-- Pole A -->
    <rect x="200" y="220" width="110" height="160" rx="3" fill="#2E4A2E" stroke="#4A7A5A" stroke-width="1.5"/>
    <rect x="215" y="230" width="12" height="140" rx="2" fill="#B87333" stroke="#8B5A2B" stroke-width="0.7"/>
    <rect x="215" y="230" width="55" height="10" rx="1" fill="#B87333" stroke="#8B5A2B" stroke-width="0.7"/>
    <ellipse cx="255" cy="310" rx="10" ry="5" fill="#D8D8D8" stroke="#C0C0C0" stroke-width="0.8"/>
    <text x="255" y="390" text-anchor="middle" fill="#4A7A5A" font-family="monospace" font-size="8">⑤ POLE A</text>

    <!-- Pole B -->
    <rect x="345" y="220" width="110" height="160" rx="3" fill="#2E4A2E" stroke="#4A7A5A" stroke-width="1.5"/>
    <rect x="360" y="230" width="12" height="140" rx="2" fill="#B87333" stroke="#8B5A2B" stroke-width="0.7"/>
    <rect x="360" y="230" width="55" height="10" rx="1" fill="#B87333" stroke="#8B5A2B" stroke-width="0.7"/>
    <ellipse cx="400" cy="310" rx="10" ry="5" fill="#D8D8D8" stroke="#C0C0C0" stroke-width="0.8"/>
    <text x="400" y="390" text-anchor="middle" fill="#4A7A5A" font-family="monospace" font-size="8">⑥ POLE B</text>

    <!-- Pole C -->
    <rect x="490" y="220" width="110" height="160" rx="3" fill="#2E4A2E" stroke="#4A7A5A" stroke-width="1.5"/>
    <rect x="505" y="230" width="12" height="140" rx="2" fill="#B87333" stroke="#8B5A2B" stroke-width="0.7"/>
    <rect x="505" y="230" width="55" height="10" rx="1" fill="#B87333" stroke="#8B5A2B" stroke-width="0.7"/>
    <ellipse cx="545" cy="310" rx="10" ry="5" fill="#D8D8D8" stroke="#C0C0C0" stroke-width="0.8"/>
    <text x="545" y="390" text-anchor="middle" fill="#4A7A5A" font-family="monospace" font-size="8">⑦ POLE C</text>
  </g>

  <!-- TRIP SHAFT -->
  <rect x="160" y="410" width="480" height="18" rx="9" fill="#C0C0C0" stroke="#4A90D9" stroke-width="1.5"/>
  <rect x="172" y="412" width="456" height="6" rx="3" fill="rgba(255,255,255,0.4)"/>
  <!-- Paddles -->
  <rect x="248" y="428" width="14" height="28" rx="2" fill="#B0B0B0" stroke="#888" stroke-width="0.9"/>
  <rect x="393" y="428" width="14" height="28" rx="2" fill="#B0B0B0" stroke="#888" stroke-width="0.9"/>
  <rect x="538" y="428" width="14" height="28" rx="2" fill="#B0B0B0" stroke="#888" stroke-width="0.9"/>
  <text x="400" y="465" text-anchor="middle" fill="#4A90D9" font-family="monospace" font-size="8">⑨ TRIP SHAFT</text>

  <!-- BACK FRAME (bottom) -->
  <rect x="100" y="480" width="600" height="100" rx="5" fill="#E8E4D8" stroke="#4A90D9" stroke-width="1.5"/>
  <!-- Pole bays -->
  <rect x="160" y="490" width="120" height="70" rx="2" fill="#D8D4C8" stroke="#B8B4A8" stroke-width="0.5"/>
  <rect x="340" y="490" width="120" height="70" rx="2" fill="#D8D4C8" stroke="#B8B4A8" stroke-width="0.5"/>
  <rect x="520" y="490" width="120" height="70" rx="2" fill="#D8D4C8" stroke="#B8B4A8" stroke-width="0.5"/>
  <text x="220" y="530" text-anchor="middle" fill="#8A8880" font-family="monospace" font-size="12">A</text>
  <text x="400" y="530" text-anchor="middle" fill="#8A8880" font-family="monospace" font-size="12">B</text>
  <text x="580" y="530" text-anchor="middle" fill="#8A8880" font-family="monospace" font-size="12">C</text>
  <text x="400" y="570" text-anchor="middle" fill="#4A90D9" font-family="monospace" font-size="8">⑮ BACK FRAME (BASE ASSEMBLY)</text>

  <!-- Callout numbers -->
  <circle cx="160" cy="140" r="10" fill="rgba(10,20,40,0.88)" stroke="#4A90D9" stroke-width="1.5"/>
  <text x="160" y="144" text-anchor="middle" fill="#4A90D9" font-family="monospace" font-size="8" font-weight="bold">1</text>
  <circle cx="400" cy="140" r="10" fill="rgba(10,20,40,0.88)" stroke="#4A90D9" stroke-width="1.5"/>
  <text x="400" y="144" text-anchor="middle" fill="#4A90D9" font-family="monospace" font-size="8" font-weight="bold">2</text>
  <circle cx="640" cy="140" r="10" fill="rgba(10,20,40,0.88)" stroke="#4A90D9" stroke-width="1.5"/>
  <text x="640" y="144" text-anchor="middle" fill="#4A90D9" font-family="monospace" font-size="8" font-weight="bold">3</text>

  <!-- Border decoration -->
  <rect x="10" y="10" width="780" height="580" fill="none" stroke="#1E3A5F" stroke-width="1" stroke-dasharray="8,4"/>
</svg>
